<mxfile host="app.diagrams.net" modified="2020-10-30T12:31:40.861Z" agent="5.0 (Windows NT 10.0; Win64; x64) AppleWebKit/537.36 (KHTML, like Gecko) Chrome/86.0.4240.111 Safari/537.36 Edg/86.0.622.56" etag="uMjJHL-hLq79Jgjtrlor" version="13.8.8" type="github">
  <diagram id="C5RBs43oDa-KdzZeNtuy" name="Page-1">
    <mxGraphModel dx="1038" dy="580" grid="1" gridSize="10" guides="1" tooltips="1" connect="1" arrows="1" fold="1" page="1" pageScale="1" pageWidth="827" pageHeight="1169" math="0" shadow="0">
      <root>
        <mxCell id="WIyWlLk6GJQsqaUBKTNV-0" />
        <mxCell id="WIyWlLk6GJQsqaUBKTNV-1" parent="WIyWlLk6GJQsqaUBKTNV-0" />
        <mxCell id="1Sd_sUSJFT2n4wufY_1q-6" value="" style="strokeWidth=1;shadow=0;dashed=0;align=center;html=1;shape=mxgraph.mockup.containers.browserWindow;rSize=0;strokeColor=#666666;strokeColor2=#008cff;strokeColor3=#c4c4c4;mainText=,;recursiveResize=0;" vertex="1" parent="WIyWlLk6GJQsqaUBKTNV-1">
          <mxGeometry x="180" y="340" width="550" height="380" as="geometry" />
        </mxCell>
        <mxCell id="1Sd_sUSJFT2n4wufY_1q-7" value="Page 1" style="strokeWidth=1;shadow=0;dashed=0;align=center;html=1;shape=mxgraph.mockup.containers.anchor;fontSize=17;fontColor=#666666;align=left;" vertex="1" parent="1Sd_sUSJFT2n4wufY_1q-6">
          <mxGeometry x="60" y="12" width="110" height="26" as="geometry" />
        </mxCell>
        <mxCell id="1Sd_sUSJFT2n4wufY_1q-8" value="https://www.draw.io" style="strokeWidth=1;shadow=0;dashed=0;align=center;html=1;shape=mxgraph.mockup.containers.anchor;rSize=0;fontSize=17;fontColor=#666666;align=left;" vertex="1" parent="1Sd_sUSJFT2n4wufY_1q-6">
          <mxGeometry x="130" y="60" width="250" height="26" as="geometry" />
        </mxCell>
        <mxCell id="1Sd_sUSJFT2n4wufY_1q-13" value="" style="html=1;shadow=0;dashed=0;shape=mxgraph.bootstrap.rrect;rSize=5;html=1;whiteSpace=wrap;verticalAlign=bottom;align=center;spacing=20;spacingBottom=0;fontSize=14;" vertex="1" parent="1Sd_sUSJFT2n4wufY_1q-6">
          <mxGeometry y="110" width="550" height="270" as="geometry" />
        </mxCell>
        <mxCell id="1Sd_sUSJFT2n4wufY_1q-14" value="Emaily" style="html=1;shadow=0;dashed=0;shape=mxgraph.bootstrap.topButton;rSize=5;perimeter=none;whiteSpace=wrap;fillColor=#F7F7F7;strokeColor=#33A64C;fontColor=#6C767D;resizeWidth=1;fontSize=18;align=left;spacing=20;" vertex="1" parent="1Sd_sUSJFT2n4wufY_1q-13">
          <mxGeometry width="550" height="50" relative="1" as="geometry" />
        </mxCell>
        <mxCell id="1Sd_sUSJFT2n4wufY_1q-16" value="&lt;font style=&quot;font-size: 18px&quot; color=&quot;#525252&quot;&gt;Login&lt;/font&gt;" style="text;html=1;strokeColor=none;fillColor=none;align=center;verticalAlign=middle;whiteSpace=wrap;rounded=0;" vertex="1" parent="1Sd_sUSJFT2n4wufY_1q-13">
          <mxGeometry x="450" y="12.857142857142856" width="70" height="23.877551020408163" as="geometry" />
        </mxCell>
        <mxCell id="1Sd_sUSJFT2n4wufY_1q-15" value="&#xa;&#xa;&lt;b style=&quot;color: rgb(51, 166, 76); font-family: helvetica; font-size: 20px; font-style: normal; letter-spacing: normal; text-align: center; text-indent: 0px; text-transform: none; word-spacing: 0px; background-color: rgb(248, 249, 250);&quot;&gt;Get Feedback From Users Faster&lt;/b&gt;&#xa;&#xa;" style="text;html=1;strokeColor=none;fillColor=none;align=center;verticalAlign=middle;whiteSpace=wrap;rounded=0;" vertex="1" parent="WIyWlLk6GJQsqaUBKTNV-1">
          <mxGeometry x="390" y="570" width="150" height="20" as="geometry" />
        </mxCell>
      </root>
    </mxGraphModel>
  </diagram>
</mxfile>
